<svg width="1440" height="543" viewBox="0 0 1440 543" fill="none" xmlns="http://www.w3.org/2000/svg">
<path d="M-40 383.809L262.356 383.809M1485 383.809L1178.04 383.809M1485 542L1392.54 542M-40 542L68.3479 542M720.315 383.809L576.241 383.809M720.315 383.809L720.315 463.035M720.315 383.809L720.315 256.845M720.315 383.809L792.71 383.809L865.105 383.809M720.315 542L720.315 463.035M720.315 542L965.206 542M720.315 542L476.141 542M1019.9 383.809L865.105 383.809M1019.9 383.809L1178.04 383.809M1019.9 383.809C1019.9 431.188 1069.95 463.036 1069.95 463.036M1019.9 383.809L1019.9 256.845M1170.06 542L1392.54 542M1170.06 542L1069.95 463.036M1170.06 542L965.206 542M419.299 383.809L262.356 383.809M419.299 383.809L576.241 383.809M419.299 383.809C419.299 429.752 369.248 463.035 369.248 463.035M419.299 383.809L419.299 256.845M276.298 542L369.248 463.035M276.298 542L476.141 542M276.298 542L68.3479 542M262.356 383.809C262.356 433.341 198.005 463.035 198.005 463.035M262.356 383.809L262.356 256.845M68.3479 542L198.005 463.035M576.241 383.809C576.241 416.831 540.491 463.035 540.491 463.035M576.241 383.809L576.241 256.845M476.141 542L540.491 463.035M865.105 383.809C865.105 424.727 900.855 463.036 900.855 463.036M865.105 383.809L865.105 256.845M965.206 542L900.855 463.036M1178.04 383.809C1178.04 425.445 1242.39 463.036 1242.39 463.036M1178.04 383.809L1178.04 256.845M1392.54 542L1242.39 463.036M-40 463.035L198.005 463.035M198.005 463.035L369.248 463.035M369.248 463.035L540.491 463.035M540.491 463.035L720.315 463.035M720.315 463.035L900.855 463.036M900.855 463.036L1069.95 463.036M1069.95 463.036L1242.39 463.036M1242.39 463.036L1485 463.036M419.299 -1.55106e-05L419.299 123.144M576.241 -1.54824e-05L576.241 123.144M720.315 -1.52099e-05L720.315 123.144M865.105 -1.55594e-05L865.105 123.144M1019.9 -1.50338e-05L1019.9 123.144M1178.04 -1.55855e-05L1178.04 123.144M262.356 -1.48544e-05L262.356 123.144M720.315 256.845L865.105 256.845M720.315 256.845L576.241 256.845M720.315 256.845L720.315 123.144M865.105 256.845L1019.9 256.845M865.105 256.845L865.105 123.144M1019.9 256.845L1178.04 256.845M1019.9 256.845L1019.9 123.144M1178.04 256.845L1485 256.845M1178.04 256.845L1178.04 123.144M576.241 256.845L419.299 256.845M576.241 256.845L576.241 123.144M419.299 256.845L262.356 256.845M419.299 256.845L419.299 123.144M262.356 256.845L-40 256.845M262.356 256.845L262.356 123.144M419.299 123.144L262.356 123.144M419.299 123.144L576.241 123.144M262.356 123.144L-40 123.144M576.241 123.144L720.315 123.144M720.315 123.144L865.105 123.144M865.105 123.144L1019.9 123.144M1019.9 123.144L1178.04 123.144M1178.04 123.144L1485 123.144" stroke="url(#paint0_linear_461_815)"/>
<defs>
<linearGradient id="paint0_linear_461_815" x1="723.501" y1="121" x2="723.501" y2="-6.67573e-06" gradientUnits="userSpaceOnUse">
<stop stop-color="#EBF3FF"/>
<stop offset="1" stop-color="#EBF3FF" stop-opacity="0"/>
</linearGradient>
</defs>
</svg>
